<svg width="40" height="40" viewBox="0 0 40 40" fill="none" xmlns="http://www.w3.org/2000/svg">
<circle cx="20" cy="20" r="20" fill="#415FFF"/>
<path d="M28.1484 19.999C28.1484 20.4063 28.1206 20.8137 28.0674 21.2187C28.079 21.1377 28.0906 21.0544 28.0998 20.9734C27.991 21.7672 27.7804 22.5449 27.4679 23.2832C27.498 23.2091 27.5304 23.1351 27.5605 23.061C27.255 23.7831 26.8569 24.4613 26.3778 25.0815C26.4264 25.019 26.4751 24.9566 26.5237 24.8941C26.0515 25.5005 25.5053 26.0467 24.8989 26.5188C24.9614 26.4702 25.0239 26.4216 25.0864 26.373C24.4661 26.8521 23.7879 27.2502 23.0658 27.5557C23.1399 27.5256 23.2139 27.4932 23.288 27.4631C22.5497 27.7733 21.772 27.9862 20.9782 28.095C21.0592 28.0834 21.1425 28.0719 21.2235 28.0626C20.4134 28.1691 19.5918 28.1691 18.7817 28.0626C18.8628 28.0742 18.9461 28.0857 19.0271 28.095C18.2332 27.9862 17.4555 27.7756 16.7172 27.4631C16.7913 27.4932 16.8654 27.5256 16.9394 27.5557C16.2173 27.2502 15.5392 26.8521 14.9189 26.373C14.9814 26.4216 15.0439 26.4702 15.1064 26.5188C14.5 26.0467 13.9538 25.5005 13.4816 24.8941C13.5302 24.9566 13.5788 25.019 13.6274 25.0815C13.1483 24.4613 12.7502 23.7831 12.4447 23.061C12.4748 23.1351 12.5072 23.2091 12.5373 23.2832C12.2272 22.5449 12.0142 21.7672 11.9054 20.9734C11.917 21.0544 11.9286 21.1377 11.9378 21.2187C11.8314 20.4086 11.8314 19.587 11.9378 18.7769C11.9263 18.8579 11.9147 18.9413 11.9054 19.0223C12.0142 18.2284 12.2248 17.4507 12.5373 16.7124C12.5072 16.7865 12.4748 16.8606 12.4447 16.9346C12.7502 16.2125 13.1483 15.5344 13.6274 14.9141C13.5788 14.9766 13.5302 15.0391 13.4816 15.1016C13.9537 14.4952 14.4999 13.949 15.1064 13.4768C15.0439 13.5254 14.9814 13.574 14.9189 13.6226C15.5392 13.1435 16.2173 12.7454 16.9394 12.4399C16.8654 12.47 16.7913 12.5024 16.7172 12.5325C17.4555 12.2224 18.2332 12.0094 19.0271 11.9006C18.9461 11.9122 18.8628 11.9238 18.7817 11.933C19.5918 11.8266 20.4135 11.8266 21.2235 11.933C21.1425 11.9215 21.0592 11.9099 20.9782 11.9006C21.772 12.0094 22.5497 12.22 23.288 12.5325C23.2139 12.5024 23.1399 12.47 23.0658 12.4399C23.7879 12.7454 24.4661 13.1435 25.0864 13.6226C25.0239 13.574 24.9614 13.5254 24.8989 13.4768C25.5053 13.9489 26.0515 14.4951 26.5237 15.1016C26.4751 15.0391 26.4264 14.9766 26.3778 14.9141C26.8569 15.5344 27.255 16.2125 27.5605 16.9346C27.5304 16.8606 27.498 16.7865 27.4679 16.7124C27.7781 17.4507 27.991 18.2284 28.0998 19.0223C28.0882 18.9413 28.0767 18.8579 28.0674 18.7769C28.1206 19.1843 28.1484 19.5916 28.1484 19.999C28.1484 20.4827 28.5743 20.9479 29.0742 20.9248C29.5741 20.9016 30 20.5174 30 19.999C29.9954 17.9692 29.3751 15.9278 28.1947 14.2728C27.8846 13.8377 27.549 13.4211 27.1787 13.0369C26.813 12.6597 26.4149 12.324 25.9983 12.0046C25.2044 11.3959 24.318 10.9331 23.3783 10.5882C21.4434 9.87763 19.2539 9.81512 17.2725 10.3776C15.3654 10.9191 13.6018 12.0463 12.3403 13.5785C12.0001 13.9905 11.683 14.4233 11.4076 14.8815C11.1345 15.3375 10.9123 15.8143 10.7109 16.3049C10.3221 17.2539 10.1069 18.263 10.0282 19.286C9.87077 21.3227 10.3776 23.4197 11.4377 25.167C12.4607 26.8543 13.9998 28.2569 15.8028 29.0716C16.2934 29.2938 16.7957 29.4882 17.3164 29.634C17.8464 29.7821 18.3904 29.8724 18.9366 29.9372C19.9758 30.0575 21.0335 29.9927 22.0588 29.7844C24.0099 29.3887 25.8453 28.3564 27.2178 26.9191C28.5995 25.4726 29.5623 23.6025 29.8633 21.6238C29.9443 21.0845 29.9998 20.5453 29.9998 19.999C29.9998 19.5153 29.574 19.0501 29.074 19.0732C28.5718 19.0964 28.1482 19.4806 28.1482 19.999L28.1484 19.999Z" fill="#F4F6FF"/>
<path d="M20.9042 24.4314V22.6562V19.8279V19.1775C20.9042 18.6938 20.4784 18.2286 19.9784 18.2517C19.4762 18.2749 19.0526 18.6591 19.0526 19.1775V20.9527V23.781V24.4314C19.0526 24.9151 19.4785 25.3803 19.9784 25.3572C20.4806 25.334 20.9042 24.9498 20.9042 24.4314Z" fill="#F4F6FF"/>
<path d="M20.9042 16.1456V15.5207C20.9042 15.0369 20.4784 14.5717 19.9784 14.5949C19.4762 14.618 19.0526 15.0022 19.0526 15.5207V16.1456C19.0526 16.6293 19.4785 17.0945 19.9784 17.0714C20.4806 17.0482 20.9042 16.664 20.9042 16.1456Z" fill="#F4F6FF"/>
</svg>
