<svg width="40" height="40" viewBox="0 0 40 40" fill="none" xmlns="http://www.w3.org/2000/svg">
<circle cx="20" cy="20" r="20" fill="#FFA318"/>
<path d="M20.0019 10C17.3503 10 14.8073 11.0535 12.9323 12.9287C11.0573 14.804 10.0039 17.3473 10.0039 19.9993C9.97629 21.5965 10.3608 23.1738 11.1203 24.579L10.1205 27.3155C9.99039 27.6732 9.96502 28.0606 10.0474 28.4323C10.1298 28.8039 10.3165 29.1443 10.5857 29.4135C10.8548 29.6826 11.1952 29.8694 11.5667 29.9518C11.9383 30.0342 12.3257 30.0088 12.6834 29.8787L15.4195 28.8787C16.8252 29.6401 18.4036 30.0258 20.0019 29.9987C21.9904 30.0006 23.9337 29.4062 25.5809 28.2921L24.3344 26.7155C23.0446 27.5529 21.5397 27.9987 20.0019 27.9988C18.4502 28.0454 16.9267 27.5765 15.6695 26.6656L12.0035 27.9988L13.3366 24.3324C12.4257 23.075 11.9569 21.5513 12.0035 19.9993C12.0035 17.8777 12.8462 15.843 14.3462 14.3429C15.8462 12.8427 17.8806 11.9999 20.0019 11.9999C22.1233 11.9999 24.1577 12.8427 25.6577 14.3429C27.1577 15.843 28.0004 17.8777 28.0004 19.9993V21.3326C28.0004 21.7746 27.8248 22.1985 27.5123 22.511C27.1998 22.8235 26.776 22.9991 26.334 22.9991C25.8921 22.9991 25.4683 22.8235 25.1558 22.511C24.8433 22.1985 24.6677 21.7746 24.6677 21.3326V19.9993C24.6683 18.9218 24.296 17.8773 23.6141 17.0432C22.9322 16.209 21.9827 15.6365 20.9267 15.4229C19.8707 15.2094 18.7734 15.3679 17.821 15.8716C16.8685 16.3752 16.1198 17.193 15.7017 18.1861C15.2837 19.1792 15.2222 20.2863 15.5276 21.3196C15.833 22.3529 16.4866 23.2487 17.3773 23.8548C18.2681 24.4609 19.3411 24.74 20.4142 24.6448C21.4874 24.5496 22.4945 24.0859 23.2646 23.3324C23.6963 23.9934 24.3297 24.4974 25.0707 24.7695C25.8117 25.0416 26.6207 25.0672 27.3774 24.8425C28.1341 24.6178 28.7981 24.1548 29.2706 23.5225C29.7431 22.8901 29.999 22.122 30 21.3326V19.666C29.9135 17.0722 28.8221 14.6137 26.9564 12.8099C25.0907 11.0062 22.5969 9.99856 20.0019 10ZM20.0019 22.6658C19.4746 22.6658 18.9592 22.5094 18.5207 22.2164C18.0823 21.9234 17.7405 21.507 17.5387 21.0198C17.337 20.5325 17.2842 19.9964 17.387 19.4791C17.4899 18.9619 17.7438 18.4868 18.1167 18.1138C18.4896 17.7409 18.9646 17.487 19.4818 17.3841C19.999 17.2812 20.5351 17.334 21.0222 17.5358C21.5094 17.7376 21.9258 18.0794 22.2188 18.5179C22.5117 18.9564 22.6681 19.4719 22.6681 19.9993C22.6681 20.7065 22.3872 21.3848 21.8872 21.8848C21.3872 22.3849 20.7091 22.6658 20.0019 22.6658Z" fill="#F8F8F8"/>
</svg>
