<svg width="96" height="43" viewBox="0 0 96 43" fill="none" xmlns="http://www.w3.org/2000/svg">
<path d="M36.0439 5.91776C30.8998 3.07824 21.2437 1.52889 4.63695 10.6681L7.53294 1.0172L5.04718 0.296211L0.853109 14.0942L14.6511 18.2883L15.3721 15.8025L6.01178 12.8956C17.2354 6.7189 26.817 4.8776 33.2951 7.43064C26.3206 11.5676 22.1297 18.052 21.8041 23.1553C21.5591 27.3192 23.9079 30.5034 28.1183 31.9166C33.7485 33.7423 38.8346 32.1373 41.6972 27.5779C44.9946 22.1817 44.8035 12.8869 38.6282 7.63079C50.6199 3.12037 72.2457 2.55901 93.6987 42.0835L95.9891 40.8231C73.6541 -0.304581 49.6801 0.0564584 36.0446 5.91911L36.0439 5.91776ZM39.4796 26.2604C38.2141 28.2996 35.0651 31.5252 28.9022 29.5449C25.7577 28.4401 24.1537 26.3387 24.3302 23.4065C24.5527 18.6586 28.9955 12.6319 35.93 8.96568C41.7042 12.9501 42.4452 21.3456 39.4796 26.2604Z" fill="url(#paint0_linear_229_269)"/>
<defs>
<linearGradient id="paint0_linear_229_269" x1="0.630466" y1="13.6895" x2="95.6909" y2="40.987" gradientUnits="userSpaceOnUse">
<stop stop-color="#FA978F"/>
<stop offset="1" stop-color="#F2F2F2"/>
</linearGradient>
</defs>
</svg>
